<?xml version="1.0" encoding="UTF-8" standalone="no"?>
<!-- Created with Inkscape (http://www.inkscape.org/) -->

<svg
   width="1024"
   height="1024"
   viewBox="0 0 270.93333 270.93333"
   version="1.1"
   id="svg5"
   inkscape:version="1.2 (dc2aedaf03, 2022-05-15)"
   sodipodi:docname="gameboylogo.svg"
   inkscape:export-filename="gameboylogo.png"
   inkscape:export-xdpi="96"
   inkscape:export-ydpi="96"
   xmlns:inkscape="http://www.inkscape.org/namespaces/inkscape"
   xmlns:sodipodi="http://sodipodi.sourceforge.net/DTD/sodipodi-0.dtd"
   xmlns="http://www.w3.org/2000/svg"
   xmlns:svg="http://www.w3.org/2000/svg">
  <sodipodi:namedview
     id="namedview7"
     pagecolor="#505050"
     bordercolor="#ffffff"
     borderopacity="1"
     inkscape:showpageshadow="0"
     inkscape:pageopacity="0"
     inkscape:pagecheckerboard="1"
     inkscape:deskcolor="#505050"
     inkscape:document-units="mm"
     showgrid="false"
     inkscape:zoom="0.73684614"
     inkscape:cx="584.2468"
     inkscape:cy="366.42657"
     inkscape:window-width="2560"
     inkscape:window-height="1367"
     inkscape:window-x="1920"
     inkscape:window-y="136"
     inkscape:window-maximized="1"
     inkscape:current-layer="layer1" />
  <defs
     id="defs2">
    <inkscape:path-effect
       effect="fillet_chamfer"
       id="path-effect11896"
       is_visible="true"
       lpeversion="1"
       nodesatellites_param="F,0,0,1,0,1.5875,0,1 @ F,0,0,1,0,1.5875,0,1 @ F,0,0,1,0,1.5875,0,1 @ F,0,0,1,0,1.5875,0,1"
       unit="px"
       method="auto"
       mode="F"
       radius="6"
       chamfer_steps="1"
       flexible="false"
       use_knot_distance="true"
       apply_no_radius="true"
       apply_with_radius="true"
       only_selected="false"
       hide_knots="false" />
    <inkscape:path-effect
       effect="fillet_chamfer"
       id="path-effect11890"
       is_visible="true"
       lpeversion="1"
       nodesatellites_param="F,0,0,1,0,1.5875,0,1 @ F,0,0,1,0,1.5875,0,1 @ F,0,0,1,0,1.5875,0,1 @ F,0,0,1,0,1.5875,0,1"
       unit="px"
       method="auto"
       mode="F"
       radius="6"
       chamfer_steps="1"
       flexible="false"
       use_knot_distance="true"
       apply_no_radius="true"
       apply_with_radius="true"
       only_selected="false"
       hide_knots="false" />
    <inkscape:path-effect
       effect="fillet_chamfer"
       id="path-effect11092"
       is_visible="true"
       lpeversion="1"
       nodesatellites_param="F,0,0,1,0,1.5875,0,1 @ F,0,0,1,0,1.5875,0,1 @ F,0,0,1,0,1.5875,0,1 @ F,0,0,1,0,1.5875,0,1 @ F,0,0,1,0,1.5875,0,1 @ F,0,0,1,0,1.5875,0,1 @ F,0,0,1,0,1.5875,0,1 @ F,0,0,1,0,1.5875,0,1 @ F,0,0,1,0,1.5875,0,1 @ F,0,0,1,0,1.5875,0,1 @ F,0,0,1,0,1.5875,0,1 @ F,0,0,1,0,1.5875,0,1"
       unit="px"
       method="auto"
       mode="F"
       radius="6"
       chamfer_steps="1"
       flexible="false"
       use_knot_distance="true"
       apply_no_radius="true"
       apply_with_radius="true"
       only_selected="false"
       hide_knots="false" />
    <inkscape:path-effect
       effect="fillet_chamfer"
       id="path-effect7199"
       is_visible="true"
       lpeversion="1"
       nodesatellites_param="F,0,0,1,0,2.1166667,0,1 @ F,0,0,1,0,2.1166667,0,1 @ F,0,0,1,0,2.1166667,0,1 @ F,0,0,1,0,2.1166667,0,1"
       unit="px"
       method="auto"
       mode="F"
       radius="8"
       chamfer_steps="1"
       flexible="false"
       use_knot_distance="true"
       apply_no_radius="true"
       apply_with_radius="true"
       only_selected="false"
       hide_knots="false" />
    <inkscape:path-effect
       effect="fillet_chamfer"
       id="path-effect6179"
       is_visible="true"
       lpeversion="1"
       nodesatellites_param="F,0,0,1,0,10.054167,0,1 @ F,0,0,1,0,10.054167,0,1 @ F,0,0,1,0,34.823974,0,1 @ F,0,0,1,0,10.054167,0,1"
       unit="px"
       method="auto"
       mode="F"
       radius="38"
       chamfer_steps="1"
       flexible="false"
       use_knot_distance="true"
       apply_no_radius="true"
       apply_with_radius="true"
       only_selected="false"
       hide_knots="false" />
    <inkscape:path-effect
       effect="fillet_chamfer"
       id="path-effect3375"
       is_visible="true"
       lpeversion="1"
       nodesatellites_param="F,0,0,1,0,8.9958333,0,1 @ F,0,0,1,0,8.9958333,0,1 @ F,0,0,1,0,21.470475,0,1 @ F,0,0,1,0,8.9958333,0,1"
       unit="px"
       method="auto"
       mode="F"
       radius="34"
       chamfer_steps="1"
       flexible="false"
       use_knot_distance="true"
       apply_no_radius="true"
       apply_with_radius="true"
       only_selected="false"
       hide_knots="false" />
    <inkscape:path-effect
       effect="fillet_chamfer"
       id="path-effect498"
       is_visible="true"
       lpeversion="1"
       nodesatellites_param="F,0,0,1,0,10.054167,0,1 @ F,0,0,1,0,10.054167,0,1 @ F,0,0,1,0,10.054167,0,1 @ F,0,0,1,0,10.054167,0,1 @ F,0,0,1,0,10.054167,0,1"
       unit="px"
       method="auto"
       mode="F"
       radius="38"
       chamfer_steps="1"
       flexible="false"
       use_knot_distance="true"
       apply_no_radius="true"
       apply_with_radius="true"
       only_selected="false"
       hide_knots="false" />
    <inkscape:path-effect
       effect="fillet_chamfer"
       id="path-effect498-3"
       is_visible="true"
       lpeversion="1"
       nodesatellites_param="F,0,0,1,0,10.054167,0,1 @ F,0,0,1,0,10.054167,0,1 @ F,0,0,1,0,10.054167,0,1"
       unit="px"
       method="auto"
       mode="F"
       radius="38"
       chamfer_steps="1"
       flexible="false"
       use_knot_distance="true"
       apply_no_radius="true"
       apply_with_radius="true"
       only_selected="false"
       hide_knots="false" />
    <inkscape:path-effect
       effect="fillet_chamfer"
       id="path-effect11896-7"
       is_visible="true"
       lpeversion="1"
       nodesatellites_param="F,0,0,1,0,1.5875,0,1 @ F,0,0,1,0,1.5875,0,1 @ F,0,0,1,0,1.5875,0,1 @ F,0,0,1,0,1.5875,0,1"
       unit="px"
       method="auto"
       mode="F"
       radius="6"
       chamfer_steps="1"
       flexible="false"
       use_knot_distance="true"
       apply_no_radius="true"
       apply_with_radius="true"
       only_selected="false"
       hide_knots="false" />
  </defs>
  <g
     inkscape:label="gameboy"
     inkscape:groupmode="layer"
     id="layer1">
    <path
       style="fill:#cccccc;fill-opacity:1;stroke:#057500;stroke-width:9.758;stroke-dasharray:none;stroke-opacity:1"
       id="rect6166"
       width="153.07169"
       height="233.97447"
       x="65.233223"
       y="19.554527"
       inkscape:path-effect="#path-effect6179"
       d="m 75.28739,19.554527 h 132.96335 a 10.054167,10.054167 45 0 1 10.05417,10.054167 V 218.70503 A 34.823974,34.823974 135 0 1 183.48093,253.529 H 75.28739 A 10.054167,10.054167 45 0 1 65.233223,243.47483 V 29.608694 A 10.054167,10.054167 135 0 1 75.28739,19.554527 Z"
       sodipodi:type="rect" />
    <circle
       style="fill:#ff0d0d;fill-opacity:1;stroke:#890000;stroke-width:5.058;stroke-dasharray:none;stroke-opacity:1"
       id="circle7028"
       cx="190.97731"
       cy="167.17664"
       r="10.513798"
       inkscape:label="a_button" />
    <circle
       style="fill:#ff0d0d;fill-opacity:1;stroke:#890000;stroke-width:5.058;stroke-dasharray:none;stroke-opacity:1"
       id="circle7095"
       cx="165.53696"
       cy="185.57359"
       r="10.513798"
       inkscape:label="b_button" />
    <path
       style="fill:#919191;fill-opacity:1;stroke:#454545;stroke-width:5.058;stroke-dasharray:none;stroke-opacity:1"
       id="rect2799"
       width="114.78965"
       height="89.473274"
       x="84.409477"
       y="42.579857"
       inkscape:path-effect="#path-effect3375"
       d="m 93.405311,42.579857 h 96.797979 a 8.9958333,8.9958333 45 0 1 8.99584,8.995833 l 0,59.00697 a 21.470475,21.470475 135 0 1 -21.47048,21.47047 H 93.405311 A 8.9958333,8.9958333 45 0 1 84.409477,123.0573 V 51.57569 a 8.9958333,8.9958333 135 0 1 8.995834,-8.995833 z"
       sodipodi:type="rect"
       inkscape:label="screen" />
    <path
       style="fill:#00630a;fill-opacity:1;stroke:#0e4700;stroke-width:5.05799;stroke-dasharray:none;stroke-opacity:1"
       id="rect7197"
       width="71.857826"
       height="69.006599"
       x="105.16247"
       y="52.598503"
       inkscape:path-effect="#path-effect7199"
       d="m 107.27913,52.598503 67.6245,0 a 2.1166667,2.1166667 45 0 1 2.11666,2.116667 l 0,64.77327 a 2.1166667,2.1166667 135 0 1 -2.11666,2.11666 h -67.6245 a 2.1166667,2.1166667 45 0 1 -2.11666,-2.11666 V 54.71517 a 2.1166667,2.1166667 135 0 1 2.11666,-2.116667 z"
       sodipodi:type="rect"
       inkscape:label="lcd" />
    <path
       id="rect7282"
       style="fill:#000000;fill-opacity:1;fill-rule:nonzero;stroke:#2f2f2f;stroke-width:4.458;stroke-dasharray:none;stroke-opacity:1"
       d="m 95.426733,157.81008 v 10.62777 a 1.5875,1.5875 135 0 1 -1.5875,1.5875 H 82.252861 a 1.5875,1.5875 135 0 0 -1.5875,1.5875 v 8.51163 a 1.5875,1.5875 45 0 0 1.5875,1.5875 h 11.586372 a 1.5875,1.5875 45 0 1 1.5875,1.5875 v 11.65613 a 1.5875,1.5875 45 0 0 1.5875,1.5875 h 8.145757 a 1.5875,1.5875 135 0 0 1.5875,-1.5875 v -11.65613 a 1.5875,1.5875 135 0 1 1.5875,-1.5875 h 11.42979 a 1.5875,1.5875 135 0 0 1.5875,-1.5875 l 0,-8.51163 a 1.5875,1.5875 45 0 0 -1.5875,-1.5875 h -11.42979 a 1.5875,1.5875 45 0 1 -1.5875,-1.5875 v -10.62777 a 1.5875,1.5875 45 0 0 -1.5875,-1.5875 h -8.145757 a 1.5875,1.5875 135 0 0 -1.5875,1.5875 z"
       inkscape:path-effect="#path-effect11092"
       inkscape:original-d="m 95.426733,156.22258 v 13.80277 H 80.665361 v 11.68663 h 14.761372 v 14.83113 h 11.320757 v -14.83113 h 14.60479 v -11.68663 h -14.60479 v -13.80277 z" />
    <path
       style="fill:#000000;fill-opacity:1;fill-rule:nonzero;stroke:#2f2f2f;stroke-width:1.989;stroke-dasharray:none;stroke-opacity:1"
       id="path11892"
       width="4.5808864"
       height="16.240208"
       x="265.23401"
       y="-32.626015"
       inkscape:path-effect="#path-effect11896"
       d="m 266.82151,-32.626015 h 1.40589 a 1.5875,1.5875 45 0 1 1.5875,1.5875 v 13.065208 a 1.5875,1.5875 135 0 1 -1.5875,1.5875 h -1.40589 a 1.5875,1.5875 45 0 1 -1.5875,-1.5875 v -13.065208 a 1.5875,1.5875 135 0 1 1.5875,-1.5875 z"
       sodipodi:type="rect"
       transform="rotate(62.417025)" />
    <path
       style="fill:#000000;fill-opacity:1;fill-rule:nonzero;stroke:#2f2f2f;stroke-width:1.989;stroke-dasharray:none;stroke-opacity:1"
       id="path11892-5"
       width="4.5808864"
       height="16.240208"
       x="257.31503"
       y="-16.115221"
       inkscape:path-effect="#path-effect11896-7"
       d="m 258.90253,-16.115221 h 1.40589 a 1.5875,1.5875 45 0 1 1.5875,1.5875 v 13.0652076 a 1.5875,1.5875 135 0 1 -1.5875,1.58750005 h -1.40589 a 1.5875,1.5875 45 0 1 -1.5875,-1.58750005 V -14.527721 a 1.5875,1.5875 135 0 1 1.5875,-1.5875 z"
       sodipodi:type="rect"
       transform="rotate(62.417025)" />
  </g>
</svg>
